<svg width="32" height="32" xmlns="http://www.w3.org/2000/svg">

 <g>
  <title>background</title>
  <rect fill="none" id="canvas_background" height="402" width="582" y="-1" x="-1"/>
 </g>
 <g>
  <title>Layer 1</title>
  <path id="svg_1" fill="#999999" d="m26.48,13.794c0,-5.789 -4.692,-10.481 -10.48,-10.481c-5.789,0 -10.481,4.692 -10.481,10.481c0,1.036 0.153,2.036 0.433,2.983c1.492,6.035 10.095,12.785 10.095,12.785s9.719,-7.621 10.291,-13.91l-0.025,-0.005c0.108,-0.601 0.167,-1.22 0.167,-1.853zm-10.337,2.334c-2.368,0 -4.288,-1.92 -4.288,-4.288c0,-2.368 1.92,-4.288 4.288,-4.288c2.367,0 4.287,1.92 4.287,4.288c0,2.368 -1.92,4.288 -4.287,4.288z"/>
 </g>
</svg>