<svg width="16" height="16" xmlns="http://www.w3.org/2000/svg">
 <title/>

 <g>
  <title>background</title>
  <rect fill="none" id="canvas_background" height="402" width="582" y="-1" x="-1"/>
 </g>
 <g>
  <title>Layer 1</title>
  <path fill="#999999" id="Oval 208" d="m3.02038,6c-0.01349,-0.16469 -0.02038,-0.33146 -0.02038,-0.5c0,-3.03757 2.23858,-5.5 5,-5.5c2.76142,0 5,2.46243 5,5.5c0,0.16854 -0.00689,0.33531 -0.02038,0.5l0.02038,0c0,3.00574 -5,10 -5,10c0,0 -5,-6.97766 -5,-10l0.02038,0zm4.97962,1c1.10457,0 2,-0.89543 2,-2c0,-1.10457 -0.89543,-2 -2,-2c-1.10457,0 -2,0.89543 -2,2c0,1.10457 0.89543,2 2,2zm0,0"/>
 </g>
</svg>